<svg xmlns="http://www.w3.org/2000/svg" width="512" height="512" viewBox="0 0 512 512" fill="none">
  <rect width="512" height="512" rx="112" fill="#17181E"/>
  <path fill-rule="evenodd" clip-rule="evenodd" fill="#C49BE6" d="M256 96 C156 96 96 156 96 256 C96 344 156 396 256 396 C356 396 404 344 404 256 C404 156 356 96 256 96ZM256 152 C320 152 348 188 348 256 C348 312 320 348 256 348 C192 348 152 312 152 256 C152 188 192 152 256 152Z"/>
  <path fill="#7A4EA8" d="M256 108 C200 108 168 148 152 200 C148 212 156 224 168 228 C180 232 192 224 196 212 C208 168 228 148 256 148 C272 148 286 154 298 164 C308 174 324 172 334 162 C344 148 342 132 328 124 C308 108 276 108 256 108Z"/>
  <circle cx="256" cy="256" r="28" fill="#EBECF0"/>
</svg>
