<svg xmlns="http://www.w3.org/2000/svg" width="512" height="512" viewBox="0 0 512 512" fill="none">
  <!-- P: Letter O with orchid petal, transparent background -->
  <defs>
    <linearGradient id="p-ring" x1="120" y1="100" x2="400" y2="400" gradientUnits="userSpaceOnUse">
      <stop stop-color="#EBD8F8"/>
      <stop offset="1" stop-color="#C49BE6"/>
    </linearGradient>
    <linearGradient id="p-petal" x1="256" y1="80" x2="340" y2="220" gradientUnits="userSpaceOnUse">
      <stop stop-color="#D8B8F0"/>
      <stop offset="1" stop-color="#7A4EA8"/>
    </linearGradient>
  </defs>
  <path fill="url(#p-ring)" fill-rule="evenodd" d="M256 84 C160 84 92 156 92 256 C92 356 160 428 256 428 C352 428 420 356 420 256 C420 156 352 84 256 84 Z M256 148 C318 148 356 190 356 256 C356 322 318 364 256 364 C194 364 156 322 156 256 C156 190 194 148 256 148 Z"/>
  <path fill="url(#p-petal)" d="M256 84 C220 84 194 108 180 144 C170 168 184 188 204 192 C220 196 234 186 242 168 C250 148 268 136 292 134 C316 132 334 146 342 166 C352 190 344 214 324 226 C300 240 276 228 260 208 C248 192 244 168 248 144 C252 112 256 84 256 84Z"/>
  <circle cx="256" cy="256" r="22" fill="#EBECF0"/>
  <circle cx="256" cy="256" r="10" fill="#7A4EA8"/>
</svg>
