<svg xmlns="http://www.w3.org/2000/svg" width="512" height="512" viewBox="0 0 512 512" fill="none">
  <!-- K: Phalaenopsis bloom, transparent background -->
  <defs>
    <linearGradient id="k-petal" x1="256" y1="96" x2="256" y2="360" gradientUnits="userSpaceOnUse">
      <stop stop-color="#EBD8F8"/>
      <stop offset="0.45" stop-color="#C49BE6"/>
      <stop offset="1" stop-color="#8B5FBF"/>
    </linearGradient>
    <linearGradient id="k-lip" x1="256" y1="220" x2="256" y2="380" gradientUnits="userSpaceOnUse">
      <stop stop-color="#9B6BC8"/>
      <stop offset="1" stop-color="#5A3488"/>
    </linearGradient>
    <radialGradient id="k-glow" cx="256" cy="248" r="160" gradientUnits="userSpaceOnUse">
      <stop stop-color="#C49BE6" stop-opacity="0.22"/>
      <stop offset="1" stop-color="#C49BE6" stop-opacity="0"/>
    </radialGradient>
  </defs>
  <circle cx="256" cy="248" r="160" fill="url(#k-glow)"/>
  <path fill="url(#k-petal)" d="M256 88 C232 88 214 120 208 156 C202 192 214 220 236 232 C248 238 256 236 256 236 C256 236 264 238 276 232 C298 220 310 192 304 156 C298 120 280 88 256 88Z"/>
  <path fill="url(#k-petal)" d="M248 220 C200 200 140 196 112 220 C84 244 88 288 116 316 C144 344 188 340 224 312 C248 294 256 268 248 220Z" opacity="0.95"/>
  <path fill="url(#k-petal)" d="M264 220 C312 200 372 196 400 220 C428 244 424 288 396 316 C368 344 324 340 288 312 C264 294 256 268 264 220Z" opacity="0.95"/>
  <path fill="#A879D0" d="M236 248 C196 268 168 308 172 348 C176 380 208 396 236 372 C256 356 260 320 254 288 C250 268 244 252 236 248Z" opacity="0.85"/>
  <path fill="#A879D0" d="M276 248 C316 268 344 308 340 348 C336 380 304 396 276 372 C256 356 252 320 258 288 C262 268 268 252 276 248Z" opacity="0.85"/>
  <path fill="url(#k-lip)" d="M256 236 C236 248 224 272 228 300 C232 328 244 348 256 360 C268 348 280 328 284 300 C288 272 276 248 256 236Z"/>
  <ellipse cx="256" cy="268" rx="14" ry="18" fill="#EBECF0" opacity="0.92"/>
  <circle cx="256" cy="264" r="6" fill="#7A4EA8"/>
</svg>
