<svg xmlns="http://www.w3.org/2000/svg" width="512" height="512" viewBox="0 0 512 512" fill="none">
  <!-- O: Corner-quarter bloom (workspace orb spirit), transparent background -->
  <defs>
    <linearGradient id="o-field" x1="96" y1="96" x2="400" y2="400" gradientUnits="userSpaceOnUse">
      <stop stop-color="#EBD8F8"/>
      <stop offset="0.5" stop-color="#C49BE6"/>
      <stop offset="1" stop-color="#7A4EA8"/>
    </linearGradient>
    <radialGradient id="o-glow" cx="256" cy="256" r="200" gradientUnits="userSpaceOnUse">
      <stop stop-color="#C49BE6" stop-opacity="0.18"/>
      <stop offset="1" stop-color="#C49BE6" stop-opacity="0"/>
    </radialGradient>
  </defs>
  <circle cx="256" cy="256" r="200" fill="url(#o-glow)"/>
  <g transform="translate(256 256)">
    <path fill="url(#o-field)" d="M0 0 L0 -168 A168 168 0 0 1 168 0 Z"/>
    <path fill="#FFFFFF" fill-opacity="0.25" d="M0 0 C0 -90 40 -140 96 -152 C70 -100 40 -50 0 0Z"/>
    <path fill="#5A3488" fill-opacity="0.2" d="M0 0 C90 0 140 -40 152 -96 C100 -70 50 -40 0 0Z"/>
    <path fill="#7A4EA8" fill-opacity="0.67" d="M0 0 C48 -48 80 -80 108 -108 C72 -64 36 -32 0 0Z"/>
    <g transform="rotate(90)">
      <path fill="url(#o-field)" d="M0 0 L0 -168 A168 168 0 0 1 168 0 Z"/>
      <path fill="#FFFFFF" fill-opacity="0.25" d="M0 0 C0 -90 40 -140 96 -152 C70 -100 40 -50 0 0Z"/>
      <path fill="#5A3488" fill-opacity="0.2" d="M0 0 C90 0 140 -40 152 -96 C100 -70 50 -40 0 0Z"/>
      <path fill="#7A4EA8" fill-opacity="0.67" d="M0 0 C48 -48 80 -80 108 -108 C72 -64 36 -32 0 0Z"/>
    </g>
    <g transform="rotate(180)">
      <path fill="url(#o-field)" d="M0 0 L0 -168 A168 168 0 0 1 168 0 Z"/>
      <path fill="#FFFFFF" fill-opacity="0.25" d="M0 0 C0 -90 40 -140 96 -152 C70 -100 40 -50 0 0Z"/>
      <path fill="#5A3488" fill-opacity="0.2" d="M0 0 C90 0 140 -40 152 -96 C100 -70 50 -40 0 0Z"/>
      <path fill="#7A4EA8" fill-opacity="0.67" d="M0 0 C48 -48 80 -80 108 -108 C72 -64 36 -32 0 0Z"/>
    </g>
    <g transform="rotate(270)">
      <path fill="url(#o-field)" d="M0 0 L0 -168 A168 168 0 0 1 168 0 Z"/>
      <path fill="#FFFFFF" fill-opacity="0.25" d="M0 0 C0 -90 40 -140 96 -152 C70 -100 40 -50 0 0Z"/>
      <path fill="#5A3488" fill-opacity="0.2" d="M0 0 C90 0 140 -40 152 -96 C100 -70 50 -40 0 0Z"/>
      <path fill="#7A4EA8" fill-opacity="0.67" d="M0 0 C48 -48 80 -80 108 -108 C72 -64 36 -32 0 0Z"/>
    </g>
    <circle r="28" fill="#EBECF0"/>
    <circle r="14" fill="#7A4EA8"/>
  </g>
</svg>
