<svg xmlns="http://www.w3.org/2000/svg" width="512" height="512" viewBox="0 0 512 512" fill="none">
  <!-- N / official: Vertical orchid crest mark, transparent background -->
  <defs>
    <linearGradient id="crest-body" x1="256" y1="80" x2="256" y2="420" gradientUnits="userSpaceOnUse">
      <stop stop-color="#E8D4F8"/>
      <stop offset="0.4" stop-color="#C49BE6"/>
      <stop offset="1" stop-color="#6B4398"/>
    </linearGradient>
  </defs>
  <path d="M256 300 C256 340 248 380 240 420" stroke="#7A4EA8" stroke-width="10" stroke-linecap="round" fill="none" opacity="0.7"/>
  <path d="M256 340 C228 360 212 388 216 416" stroke="#7A4EA8" stroke-width="7" stroke-linecap="round" fill="none" opacity="0.45"/>
  <path fill="url(#crest-body)" d="M248 210 C190 190 128 200 108 248 C92 284 112 320 152 328 C192 336 228 304 244 268 C250 248 252 228 248 210Z"/>
  <path fill="url(#crest-body)" d="M264 210 C322 190 384 200 404 248 C420 284 400 320 360 328 C320 336 284 304 268 268 C262 248 260 228 264 210Z"/>
  <path fill="#D8B8F0" d="M256 96 C228 96 210 128 208 164 C206 196 224 220 248 228 C256 230 256 230 256 230 C256 230 256 230 264 228 C288 220 306 196 304 164 C302 128 284 96 256 96Z"/>
  <path fill="#7A4EA8" d="M256 220 C236 232 224 260 228 292 C232 320 244 340 256 352 C268 340 280 320 284 292 C288 260 276 232 256 220Z"/>
  <ellipse cx="256" cy="252" rx="16" ry="20" fill="#EBECF0"/>
  <circle cx="256" cy="248" r="7" fill="#7A4EA8"/>
</svg>
