<svg xmlns="http://www.w3.org/2000/svg" width="512" height="512" viewBox="0 0 512 512" fill="none">
  <rect width="512" height="512" rx="118" fill="#12131A"/>
  <path
    fill="#C49BE6"
    d="M256 88 C168 88 104 152 104 256 C104 352 168 408 256 408 C352 408 392 352 392 256 C392 152 352 88 256 88 Z M256 148 C312 148 336 184 336 256 C336 320 312 348 256 348 C200 348 152 320 152 256 C152 184 200 148 256 148 Z"
  />
  <path
    fill="#7A4EA8"
    d="M256 88 C220 88 196 108 184 140 C176 160 188 176 204 180 C216 184 228 176 236 160 C244 140 260 128 280 124 C300 120 316 132 324 148 C336 172 328 196 308 208 C288 220 268 212 256 196 C244 180 236 160 236 140 C236 108 248 88 256 88 Z"
  />
  <circle cx="256" cy="256" r="20" fill="#EBECF0"/>
</svg>
