<svg xmlns="http://www.w3.org/2000/svg" width="512" height="512" viewBox="0 0 512 512" fill="none">
  <!-- M: Fine botanical line orchid, transparent background -->
  <g stroke-linecap="round" stroke-linejoin="round" fill="none">
    <path d="M256 96 C228 96 208 132 204 168 C200 204 220 232 248 240" stroke="#C49BE6" stroke-width="10"/>
    <path d="M256 96 C284 96 304 132 308 168 C312 204 292 232 264 240" stroke="#C49BE6" stroke-width="10"/>
    <path d="M244 232 C196 212 140 208 112 236 C84 264 92 316 128 340 C160 360 208 352 236 324" stroke="#C49BE6" stroke-width="10"/>
    <path d="M268 232 C316 212 372 208 400 236 C428 264 420 316 384 340 C352 360 304 352 276 324" stroke="#C49BE6" stroke-width="10"/>
    <path d="M236 300 C200 320 180 360 192 396 C204 424 236 428 252 404" stroke="#9B6BC8" stroke-width="8" opacity="0.9"/>
    <path d="M276 300 C312 320 332 360 320 396 C308 424 276 428 260 404" stroke="#9B6BC8" stroke-width="8" opacity="0.9"/>
    <path d="M248 244 C236 260 232 288 240 312 C248 336 256 348 256 348 C256 348 264 336 272 312 C280 288 276 260 264 244" stroke="#7A4EA8" stroke-width="9"/>
    <path d="M256 348 L256 420" stroke="#7A4EA8" stroke-width="8" opacity="0.65"/>
  </g>
  <circle cx="256" cy="256" r="12" fill="#EBECF0"/>
  <circle cx="256" cy="256" r="5" fill="#7A4EA8"/>
</svg>
